<svg width="145" height="39" viewBox="0 0 145 39" fill="none" xmlns="http://www.w3.org/2000/svg">
<mask id="path-1-inside-1_1_850" fill="white">
<path d="M5.84376 19.935C5.45324 19.5444 5.45324 18.9113 5.84376 18.5207L7.73149 16.633C10.0746 14.2899 13.8736 14.2899 16.2168 16.633L18.1045 18.5207C18.495 18.9113 18.495 19.5444 18.1045 19.935L16.2168 21.8227C13.8736 24.1658 10.0746 24.1658 7.73149 21.8227L5.84376 19.935Z"/>
</mask>
<path d="M5.84376 19.935C5.45324 19.5444 5.45324 18.9113 5.84376 18.5207L7.73149 16.633C10.0746 14.2899 13.8736 14.2899 16.2168 16.633L18.1045 18.5207C18.495 18.9113 18.495 19.5444 18.1045 19.935L16.2168 21.8227C13.8736 24.1658 10.0746 24.1658 7.73149 21.8227L5.84376 19.935Z" stroke="#CAC9CF" stroke-width="5" mask="url(#path-1-inside-1_1_850)"/>
<mask id="path-2-inside-2_1_850" fill="white">
<path d="M21.9319 19.935C21.5414 19.5444 21.5414 18.9113 21.9319 18.5207L23.8196 16.633C26.1628 14.2899 29.9618 14.2899 32.3049 16.633L34.1926 18.5207C34.5832 18.9113 34.5832 19.5444 34.1926 19.935L32.3049 21.8227C29.9618 24.1658 26.1628 24.1658 23.8196 21.8227L21.9319 19.935Z"/>
</mask>
<path d="M21.9319 19.935C21.5414 19.5444 21.5414 18.9113 21.9319 18.5207L23.8196 16.633C26.1628 14.2899 29.9618 14.2899 32.3049 16.633L34.1926 18.5207C34.5832 18.9113 34.5832 19.5444 34.1926 19.935L32.3049 21.8227C29.9618 24.1658 26.1628 24.1658 23.8196 21.8227L21.9319 19.935Z" stroke="#CAC9CF" stroke-width="5" mask="url(#path-2-inside-2_1_850)"/>
<mask id="path-3-inside-3_1_850" fill="white">
<path d="M19.3111 5.05342C19.7016 4.6629 20.3348 4.6629 20.7253 5.05342L22.613 6.94115C24.9562 9.28429 24.9562 13.0833 22.613 15.4264L20.7253 17.3142C20.3348 17.7047 19.7016 17.7047 19.3111 17.3142L17.4234 15.4264C15.0802 13.0833 15.0802 9.28429 17.4234 6.94115L19.3111 5.05342Z"/>
</mask>
<path d="M19.3111 5.05342C19.7016 4.6629 20.3348 4.6629 20.7253 5.05342L22.613 6.94115C24.9562 9.28429 24.9562 13.0833 22.613 15.4264L20.7253 17.3142C20.3348 17.7047 19.7016 17.7047 19.3111 17.3142L17.4234 15.4264C15.0802 13.0833 15.0802 9.28429 17.4234 6.94115L19.3111 5.05342Z" stroke="#CAC9CF" stroke-width="5" mask="url(#path-3-inside-3_1_850)"/>
<mask id="path-4-inside-4_1_850" fill="white">
<path d="M19.2054 20.3424C19.596 19.9518 20.2291 19.9518 20.6196 20.3424L22.5074 22.2301C24.8505 24.5732 24.8505 28.3722 22.5074 30.7154L20.6196 32.6031C20.2291 32.9936 19.596 32.9936 19.2054 32.6031L17.3177 30.7154C14.9746 28.3722 14.9746 24.5732 17.3177 22.2301L19.2054 20.3424Z"/>
</mask>
<path d="M19.2054 20.3424C19.596 19.9518 20.2291 19.9518 20.6196 20.3424L22.5074 22.2301C24.8505 24.5732 24.8505 28.3722 22.5074 30.7154L20.6196 32.6031C20.2291 32.9936 19.596 32.9936 19.2054 32.6031L17.3177 30.7154C14.9746 28.3722 14.9746 24.5732 17.3177 22.2301L19.2054 20.3424Z" stroke="#CAC9CF" stroke-width="5" mask="url(#path-4-inside-4_1_850)"/>
<path d="M23.75 1.29785C24.8356 1.20771 25.7219 1.22654 26.5273 1.5127C27.0049 1.68235 27.3852 2.07688 27.9238 2.81738C28.3914 3.46029 29.0508 4.49559 30.0088 5.1709C31.051 5.90557 32.4546 6.40502 33.4277 6.81836C34.5624 7.30033 35.1618 7.67761 35.4062 8.08594C35.7581 8.67358 35.9434 9.41776 36.1162 10.4258C36.2784 11.3714 36.4328 12.5849 36.79 13.7646C37.1129 14.8308 37.7983 15.9554 38.2471 16.8018C38.7538 17.7576 39.0526 18.4992 39.0527 19.1631C39.0527 19.7842 38.7878 20.3518 38.2959 21.1279C37.8568 21.8207 37.1304 22.8096 36.79 23.9336C36.419 25.1589 36.3515 26.5641 36.2344 27.5889C36.1051 28.7195 35.915 29.5369 35.4697 30.1465C35.0282 30.751 34.3051 31.1861 33.2715 31.6602C32.338 32.0882 31.0325 32.5879 30.0088 33.3096C29.0673 33.9733 28.4119 34.9495 27.9434 35.5605C27.4143 36.2506 27.0289 36.6363 26.5273 36.8145C25.7219 37.1006 24.8356 37.1194 23.75 37.0293C22.7494 36.9462 21.4061 36.7422 20.1514 36.7422C18.8967 36.7422 17.5533 36.9462 16.5527 37.0293C15.4671 37.1194 14.5809 37.1006 13.7754 36.8145C13.0442 36.5547 12.4454 36.0908 11.7764 35.4551C11.1596 34.869 10.365 34.004 9.47852 33.334C8.61188 32.6791 7.53 32.133 6.74805 31.6777C5.89128 31.1789 5.2528 30.7212 4.83301 30.1465C4.3503 29.4857 4.08122 28.6086 3.85938 27.4883C3.65676 26.4651 3.4773 25.0906 3.12695 23.9336C2.80719 22.8776 2.226 21.9181 1.87012 21.2256C1.48359 20.4734 1.25 19.8619 1.25 19.1631C1.25014 18.4992 1.5489 17.7576 2.05566 16.8018C2.50441 15.9554 3.1898 14.8308 3.5127 13.7646C3.87951 12.5532 3.95041 11.3141 4.06543 10.4453C4.18834 9.51705 4.36649 8.81933 4.83301 8.18066C5.23894 7.62496 5.85618 7.20776 6.71289 6.74609C7.49309 6.32569 8.5898 5.81808 9.47852 5.14648C10.3844 4.46181 11.1798 3.5485 11.8008 2.9248C12.4777 2.24504 13.0676 1.76415 13.7754 1.5127C14.5809 1.22655 15.4671 1.20771 16.5527 1.29785C17.5533 1.38093 18.8967 1.58496 20.1514 1.58496C21.4061 1.58496 22.7494 1.38093 23.75 1.29785Z" stroke="#CAC9CF" stroke-width="2.5"/>
<path d="M72.2271 8.9035C72.3449 8.9035 72.458 8.95948 72.5417 9.05928C72.6254 9.15908 72.673 9.2946 72.6741 9.43637V28.7167C72.6741 28.8584 72.6275 28.9945 72.5446 29.0952C72.4616 29.1959 72.349 29.2531 72.2311 29.2544H70.0486C69.9308 29.2531 69.8181 29.1959 69.7352 29.0952C69.6522 28.9945 69.6057 28.8584 69.6057 28.7167V16.1748C69.4339 16.3427 69.2567 16.5042 69.0741 16.6592C68.5547 17.0952 68.0272 17.4634 67.5158 17.8218C67.0044 18.1803 66.6661 18.4613 66.2635 18.7471C65.5096 19.2709 64.8532 19.9755 64.3351 20.8172C63.8169 21.6588 63.4481 22.6196 63.2514 23.6398C63.2294 23.7586 63.1742 23.8647 63.0951 23.9404C63.016 24.0162 62.9177 24.0572 62.8165 24.0565H60.7347C60.6336 24.0572 60.5353 24.0162 60.4562 23.9404C60.3771 23.8647 60.3219 23.7586 60.2998 23.6398C60.1032 22.6183 59.734 21.6563 59.2151 20.8138C58.6962 19.9712 58.0388 19.2661 57.2838 18.7423C56.8811 18.4564 56.4784 18.1416 56.0315 17.817C55.5845 17.4924 54.9925 17.0904 54.4731 16.6544C54.2905 16.5026 54.1134 16.3411 53.9416 16.1699V28.7167C53.9416 28.8584 53.895 28.9945 53.8121 29.0952C53.7291 29.1959 53.6165 29.2531 53.4986 29.2544H51.3201C51.2023 29.2531 51.0896 29.1959 51.0067 29.0952C50.9237 28.9945 50.8772 28.8584 50.8772 28.7167V9.44122C50.8772 9.29861 50.9243 9.16184 51.0081 9.061C51.0919 8.96016 51.2056 8.9035 51.3242 8.9035H53.4785C53.5834 8.90525 53.6845 8.95134 53.764 9.0337C53.8435 9.11607 53.8964 9.22946 53.9134 9.35402C54.0342 10.2938 54.4932 12.4883 56.1724 13.7139C56.6153 14.0288 57.0542 14.3824 57.5375 14.7263C58.0207 15.0703 58.4918 15.3852 58.9509 15.7727C59.8883 16.5225 60.7271 17.4369 61.4394 18.4855C61.4797 18.547 61.5311 18.5967 61.5897 18.6309C61.6483 18.665 61.7125 18.6828 61.7776 18.6828C61.8427 18.6828 61.907 18.665 61.9656 18.6309C62.0242 18.5967 62.0756 18.547 62.1159 18.4855C62.8267 17.4355 63.6641 16.5195 64.6004 15.7679C65.0796 15.3803 65.5789 15.0315 66.0178 14.7215C66.4567 14.4115 66.948 14.0288 67.3789 13.7139C69.0621 12.5077 69.5211 10.3229 69.6419 9.35402C69.6589 9.22946 69.7118 9.11607 69.7913 9.0337C69.8708 8.95134 69.9719 8.90525 70.0768 8.9035H72.2271Z" fill="#CAC9CF"/>
<path d="M95.4617 19.0789C95.4617 24.6851 91.0188 29.2543 85.554 29.2543C80.0893 29.2543 75.6464 24.6899 75.6464 19.0789C75.6464 13.4679 80.0893 8.90344 85.554 8.90344C91.0188 8.90344 95.4617 13.4679 95.4617 19.0789ZM85.554 12.6005C81.81 12.6005 78.765 15.5078 78.765 19.0789C78.765 22.65 81.81 25.533 85.554 25.533C89.298 25.533 92.3471 22.6257 92.3471 19.0595C92.3471 15.4932 89.298 12.6005 85.554 12.6005Z" fill="#CAC9CF"/>
<path d="M118.249 19.0789C118.249 24.6851 113.584 29.2543 107.846 29.2543C102.108 29.2543 97.4432 24.6899 97.4432 19.0789C97.4432 13.4679 102.108 8.90344 107.846 8.90344C113.584 8.90344 118.249 13.4679 118.249 19.0789ZM107.846 12.6005C103.915 12.6005 100.714 15.5078 100.714 19.0789C100.714 22.65 103.915 25.533 107.846 25.533C111.777 25.533 114.975 22.6257 114.975 19.0595C114.975 15.4932 111.765 12.6005 107.846 12.6005Z" fill="#CAC9CF"/>
<path d="M135.979 18.9287V9.43644C135.979 9.36645 135.99 9.29714 136.013 9.23247C136.035 9.1678 136.068 9.10905 136.109 9.05955C136.15 9.01006 136.199 8.9708 136.253 8.94401C136.307 8.91723 136.365 8.90344 136.423 8.90344H138.611C138.67 8.90344 138.727 8.91723 138.781 8.94401C138.835 8.9708 138.884 9.01006 138.925 9.05955C138.967 9.10905 138.999 9.1678 139.022 9.23247C139.044 9.29714 139.055 9.36645 139.055 9.43644V28.7213C139.055 28.7913 139.044 28.8606 139.022 28.9253C138.999 28.99 138.967 29.0487 138.925 29.0982C138.884 29.1477 138.835 29.187 138.781 29.2137C138.727 29.2405 138.67 29.2543 138.611 29.2543H136.443C136.385 29.2543 136.327 29.2405 136.273 29.2137C136.219 29.187 136.17 29.1477 136.129 29.0982C136.088 29.0487 136.055 28.99 136.033 28.9253C136.01 28.8606 135.999 28.7913 135.999 28.7213V27.2047C136.001 26.7299 135.913 26.2609 135.741 25.8334C135.099 24.2732 133.439 21.3853 129.563 19.6167C127.926 18.8905 126.392 17.864 125.017 16.5738C124.952 16.5101 124.873 16.4699 124.79 16.4581C124.707 16.4463 124.622 16.4633 124.547 16.507C124.471 16.5508 124.408 16.6196 124.364 16.7052C124.32 16.7909 124.297 16.8899 124.298 16.9905V28.7213C124.298 28.8627 124.251 28.9983 124.168 29.0982C124.085 29.1982 123.972 29.2543 123.854 29.2543H121.666C121.548 29.2543 121.435 29.1982 121.352 29.0982C121.268 28.9983 121.222 28.8627 121.222 28.7213V9.43644C121.222 9.29508 121.268 9.15951 121.352 9.05955C121.435 8.9596 121.548 8.90344 121.666 8.90344H123.794C123.882 8.90555 123.968 8.93949 124.04 9.00084C124.112 9.0622 124.167 9.14813 124.197 9.24747C124.549 10.391 126.01 14.0929 130.633 16.1571C132.306 16.8913 133.862 17.9648 135.232 19.3308C135.296 19.3977 135.375 19.4409 135.459 19.4555C135.544 19.47 135.629 19.4552 135.707 19.4128C135.784 19.3705 135.85 19.3023 135.896 19.2165C135.942 19.1307 135.967 19.0308 135.967 18.9287H135.979Z" fill="#CAC9CF"/>
<path d="M142.028 27.2193C142.028 26.8166 142.115 26.4229 142.278 26.0881C142.442 25.7534 142.674 25.4925 142.946 25.3386C143.218 25.1848 143.517 25.1447 143.805 25.2237C144.094 25.3026 144.358 25.4969 144.566 25.782C144.774 26.0671 144.915 26.4302 144.972 26.8253C145.029 27.2204 144.999 27.6298 144.886 28.0015C144.773 28.3733 144.582 28.6908 144.337 28.9138C144.092 29.1368 143.804 29.2554 143.51 29.2544C143.315 29.2544 143.122 29.2017 142.942 29.0994C142.762 28.997 142.598 28.847 142.461 28.658C142.323 28.469 142.214 28.2446 142.14 27.9977C142.065 27.7508 142.027 27.4863 142.028 27.2193Z" fill="#CAC9CF"/>
</svg>
