<svg width="41" height="39" viewBox="0 0 41 39" fill="none" xmlns="http://www.w3.org/2000/svg">
<mask id="path-1-inside-1_1_573" fill="white">
<path d="M5.8437 19.9346C5.45318 19.5441 5.45318 18.911 5.8437 18.5204L7.73143 16.6327C10.0746 14.2896 13.8736 14.2896 16.2167 16.6327L18.1044 18.5204C18.495 18.911 18.495 19.5441 18.1044 19.9346L16.2167 21.8224C13.8736 24.1655 10.0746 24.1655 7.73143 21.8224L5.8437 19.9346Z"/>
</mask>
<path d="M5.8437 19.9346C5.45318 19.5441 5.45318 18.911 5.8437 18.5204L7.73143 16.6327C10.0746 14.2896 13.8736 14.2896 16.2167 16.6327L18.1044 18.5204C18.495 18.911 18.495 19.5441 18.1044 19.9346L16.2167 21.8224C13.8736 24.1655 10.0746 24.1655 7.73143 21.8224L5.8437 19.9346Z" stroke="#3A3845" stroke-width="5" mask="url(#path-1-inside-1_1_573)"/>
<mask id="path-2-inside-2_1_573" fill="white">
<path d="M21.9318 19.9346C21.5413 19.5441 21.5413 18.911 21.9318 18.5204L23.8196 16.6327C26.1627 14.2896 29.9617 14.2896 32.3048 16.6327L34.1926 18.5204C34.5831 18.911 34.5831 19.5441 34.1926 19.9346L32.3048 21.8224C29.9617 24.1655 26.1627 24.1655 23.8196 21.8224L21.9318 19.9346Z"/>
</mask>
<path d="M21.9318 19.9346C21.5413 19.5441 21.5413 18.911 21.9318 18.5204L23.8196 16.6327C26.1627 14.2896 29.9617 14.2896 32.3048 16.6327L34.1926 18.5204C34.5831 18.911 34.5831 19.5441 34.1926 19.9346L32.3048 21.8224C29.9617 24.1655 26.1627 24.1655 23.8196 21.8224L21.9318 19.9346Z" stroke="#3A3845" stroke-width="5" mask="url(#path-2-inside-2_1_573)"/>
<mask id="path-3-inside-3_1_573" fill="white">
<path d="M19.3111 5.0533C19.7016 4.66277 20.3348 4.66277 20.7253 5.0533L22.613 6.94102C24.9562 9.28417 24.9562 13.0832 22.613 15.4263L20.7253 17.314C20.3348 17.7046 19.7016 17.7046 19.3111 17.314L17.4234 15.4263C15.0802 13.0832 15.0802 9.28417 17.4234 6.94103L19.3111 5.0533Z"/>
</mask>
<path d="M19.3111 5.0533C19.7016 4.66277 20.3348 4.66277 20.7253 5.0533L22.613 6.94102C24.9562 9.28417 24.9562 13.0832 22.613 15.4263L20.7253 17.314C20.3348 17.7046 19.7016 17.7046 19.3111 17.314L17.4234 15.4263C15.0802 13.0832 15.0802 9.28417 17.4234 6.94103L19.3111 5.0533Z" stroke="#3A3845" stroke-width="5" mask="url(#path-3-inside-3_1_573)"/>
<mask id="path-4-inside-4_1_573" fill="white">
<path d="M19.2054 20.3424C19.5959 19.9518 20.2291 19.9518 20.6196 20.3424L22.5073 22.2301C24.8505 24.5732 24.8505 28.3722 22.5073 30.7154L20.6196 32.6031C20.2291 32.9936 19.5959 32.9936 19.2054 32.6031L17.3176 30.7154C14.9745 28.3722 14.9745 24.5732 17.3176 22.2301L19.2054 20.3424Z"/>
</mask>
<path d="M19.2054 20.3424C19.5959 19.9518 20.2291 19.9518 20.6196 20.3424L22.5073 22.2301C24.8505 24.5732 24.8505 28.3722 22.5073 30.7154L20.6196 32.6031C20.2291 32.9936 19.5959 32.9936 19.2054 32.6031L17.3176 30.7154C14.9745 28.3722 14.9745 24.5732 17.3176 22.2301L19.2054 20.3424Z" stroke="#3A3845" stroke-width="5" mask="url(#path-4-inside-4_1_573)"/>
<path d="M23.75 1.29785C24.8356 1.20771 25.7219 1.22654 26.5273 1.5127C27.0049 1.68235 27.3852 2.07688 27.9238 2.81738C28.3914 3.46029 29.0508 4.49559 30.0088 5.1709C31.051 5.90557 32.4546 6.40502 33.4277 6.81836C34.5624 7.30033 35.1618 7.67761 35.4062 8.08594C35.7581 8.67358 35.9434 9.41776 36.1162 10.4258C36.2784 11.3714 36.4328 12.5849 36.79 13.7646C37.1129 14.8308 37.7983 15.9554 38.2471 16.8018C38.7538 17.7576 39.0526 18.4992 39.0527 19.1631C39.0527 19.7842 38.7878 20.3518 38.2959 21.1279C37.8568 21.8207 37.1304 22.8096 36.79 23.9336C36.419 25.1589 36.3515 26.5641 36.2344 27.5889C36.1051 28.7195 35.915 29.5369 35.4697 30.1465C35.0282 30.751 34.3051 31.1861 33.2715 31.6602C32.338 32.0882 31.0325 32.5879 30.0088 33.3096C29.0673 33.9733 28.4119 34.9495 27.9434 35.5605C27.4143 36.2506 27.0289 36.6363 26.5273 36.8145C25.7219 37.1006 24.8356 37.1194 23.75 37.0293C22.7494 36.9462 21.4061 36.7422 20.1514 36.7422C18.8967 36.7422 17.5533 36.9462 16.5527 37.0293C15.4671 37.1194 14.5809 37.1006 13.7754 36.8145C13.0442 36.5547 12.4454 36.0908 11.7764 35.4551C11.1596 34.869 10.365 34.004 9.47852 33.334C8.61188 32.6791 7.53 32.133 6.74805 31.6777C5.89128 31.1789 5.2528 30.7212 4.83301 30.1465C4.3503 29.4857 4.08122 28.6086 3.85938 27.4883C3.65676 26.4651 3.4773 25.0906 3.12695 23.9336C2.80719 22.8776 2.226 21.9181 1.87012 21.2256C1.48359 20.4734 1.25 19.8619 1.25 19.1631C1.25014 18.4992 1.5489 17.7576 2.05566 16.8018C2.50441 15.9554 3.1898 14.8308 3.5127 13.7646C3.87951 12.5532 3.95041 11.3141 4.06543 10.4453C4.18834 9.51705 4.36649 8.81933 4.83301 8.18066C5.23894 7.62496 5.85618 7.20776 6.71289 6.74609C7.49309 6.32569 8.5898 5.81808 9.47852 5.14648C10.3844 4.46181 11.1798 3.5485 11.8008 2.9248C12.4777 2.24504 13.0676 1.76415 13.7754 1.5127C14.5809 1.22655 15.4671 1.20771 16.5527 1.29785C17.5533 1.38093 18.8967 1.58496 20.1514 1.58496C21.4061 1.58496 22.7494 1.38093 23.75 1.29785Z" stroke="#3A3845" stroke-width="2.5"/>
</svg>
