<svg width="86" height="82" viewBox="0 0 86 82" fill="none" xmlns="http://www.w3.org/2000/svg">
<mask id="path-1-inside-1_52_1861" fill="white">
<path d="M12.3026 42.1725C11.5216 41.3915 11.5216 40.1251 12.3026 39.3441L16.8969 34.7499C21.5832 30.0636 29.1811 30.0636 33.8674 34.7499L38.4617 39.3441C39.2427 40.1251 39.2427 41.3915 38.4617 42.1725L33.8674 46.7668C29.1811 51.453 21.5832 51.453 16.8969 46.7667L12.3026 42.1725Z"/>
</mask>
<path d="M12.3026 42.1725C11.5216 41.3915 11.5216 40.1251 12.3026 39.3441L16.8969 34.7499C21.5832 30.0636 29.1811 30.0636 33.8674 34.7499L38.4617 39.3441C39.2427 40.1251 39.2427 41.3915 38.4617 42.1725L33.8674 46.7668C29.1811 51.453 21.5832 51.453 16.8969 46.7667L12.3026 42.1725Z" stroke="#C69B7B" stroke-width="8" mask="url(#path-1-inside-1_52_1861)"/>
<mask id="path-2-inside-2_52_1861" fill="white">
<path d="M46.4054 42.1725C45.6244 41.3915 45.6244 40.1251 46.4054 39.3441L50.9997 34.7499C55.686 30.0636 63.2839 30.0636 67.9702 34.7499L72.5645 39.3441C73.3455 40.1251 73.3455 41.3915 72.5645 42.1725L67.9702 46.7668C63.2839 51.453 55.6859 51.453 50.9997 46.7667L46.4054 42.1725Z"/>
</mask>
<path d="M46.4054 42.1725C45.6244 41.3915 45.6244 40.1251 46.4054 39.3441L50.9997 34.7499C55.686 30.0636 63.2839 30.0636 67.9702 34.7499L72.5645 39.3441C73.3455 40.1251 73.3455 41.3915 72.5645 42.1725L67.9702 46.7668C63.2839 51.453 55.6859 51.453 50.9997 46.7667L46.4054 42.1725Z" stroke="#C69B7B" stroke-width="8" mask="url(#path-2-inside-2_52_1861)"/>
<mask id="path-3-inside-3_52_1861" fill="white">
<path d="M41.0194 10.6273C41.8004 9.8463 43.0668 9.8463 43.8478 10.6273L48.442 15.2216C53.1283 19.9079 53.1283 27.5059 48.442 32.1921L43.8478 36.7864C43.0668 37.5674 41.8004 37.5674 41.0194 36.7864L36.4251 32.1921C31.7389 27.5058 31.7389 19.9079 36.4251 15.2216L41.0194 10.6273Z"/>
</mask>
<path d="M41.0194 10.6273C41.8004 9.8463 43.0668 9.8463 43.8478 10.6273L48.442 15.2216C53.1283 19.9079 53.1283 27.5059 48.442 32.1921L43.8478 36.7864C43.0668 37.5674 41.8004 37.5674 41.0194 36.7864L36.4251 32.1921C31.7389 27.5058 31.7389 19.9079 36.4251 15.2216L41.0194 10.6273Z" stroke="#C69B7B" stroke-width="8" mask="url(#path-3-inside-3_52_1861)"/>
<mask id="path-4-inside-4_52_1861" fill="white">
<path d="M40.7955 43.036C41.5766 42.255 42.8429 42.255 43.6239 43.036L48.2182 47.6303C52.9045 52.3166 52.9045 59.9145 48.2182 64.6008L43.6239 69.1951C42.8429 69.9761 41.5766 69.9761 40.7955 69.1951L36.2013 64.6008C31.515 59.9145 31.515 52.3166 36.2013 47.6303L40.7955 43.036Z"/>
</mask>
<path d="M40.7955 43.036C41.5766 42.255 42.8429 42.255 43.6239 43.036L48.2182 47.6303C52.9045 52.3166 52.9045 59.9145 48.2182 64.6008L43.6239 69.1951C42.8429 69.9761 41.5766 69.9761 40.7955 69.1951L36.2013 64.6008C31.515 59.9145 31.515 52.3166 36.2013 47.6303L40.7955 43.036Z" stroke="#C69B7B" stroke-width="8" mask="url(#path-4-inside-4_52_1861)"/>
<path d="M50.29 2.10449C52.6169 1.91129 54.6079 1.94103 56.4482 2.59473C57.666 3.02733 58.5741 4.01845 59.7178 5.59082C60.7476 7.0068 62.0669 9.0783 63.9854 10.4307C66.1201 11.9354 68.9884 12.9539 71.1133 13.8564C73.4964 14.8687 74.9689 15.7344 75.6104 16.8057C76.4236 18.164 76.8309 19.8481 77.1982 21.9902C77.5484 24.0323 77.8657 26.5387 78.6074 28.9883C79.2676 31.1684 80.6653 33.4562 81.6484 35.3105C82.7246 37.3404 83.4316 39.0392 83.4316 40.6221C83.4316 42.1363 82.7787 43.4728 81.7266 45.1328C80.759 46.6595 79.2957 48.649 78.6074 50.9219C77.8436 53.4445 77.7091 56.3166 77.4531 58.5557C77.1777 60.9641 76.7625 62.8465 75.7109 64.2861C74.6683 65.7133 72.9989 66.6932 70.7988 67.7021C68.759 68.6376 66.0905 69.6538 63.9854 71.1377C62.0928 72.4718 60.7794 74.4303 59.748 75.7754C58.6198 77.2469 57.7043 78.2022 56.4482 78.6484C54.6078 79.3022 52.617 79.3329 50.29 79.1396C48.0991 78.9577 45.3428 78.5332 42.7158 78.5332C40.0888 78.5332 37.3325 78.9577 35.1416 79.1396C32.8146 79.3329 30.8238 79.3022 28.9834 78.6484C27.3042 78.0519 25.9551 76.9939 24.5156 75.626C23.1597 74.3374 21.5402 72.568 19.6992 71.1768C17.9037 69.82 15.6885 68.7056 13.9785 67.71C12.1486 66.6445 10.6944 65.619 9.7207 64.2861C8.60924 62.7646 8.01759 60.7864 7.54395 58.3945C7.10107 56.1581 6.73662 53.3353 6.00586 50.9219C5.3506 48.7579 4.17005 46.8153 3.38574 45.2891C2.55247 43.6675 2.00004 42.2606 2 40.6221C2 39.0392 2.70704 37.3404 3.7832 35.3105C4.76633 33.4562 6.16408 31.1684 6.82422 28.9883C7.58123 26.4881 7.72109 23.9642 7.97363 22.0566C8.23883 20.0536 8.63509 18.4442 9.7207 16.958C10.6722 15.6555 12.0911 14.7145 13.9209 13.7285C15.6281 12.8085 17.8681 11.7753 19.6992 10.3916C21.5715 8.97671 23.1928 7.10983 24.5557 5.74121C26.0076 4.28314 27.3417 3.17794 28.9834 2.59473C30.8237 1.94103 32.8147 1.91129 35.1416 2.10449C37.3325 2.28642 40.0888 2.70996 42.7158 2.70996C45.3428 2.70996 48.0991 2.28642 50.29 2.10449Z" stroke="#C69B7B" stroke-width="4"/>
</svg>
