<svg width="19" height="19" viewBox="0 0 19 19" fill="none" xmlns="http://www.w3.org/2000/svg">
<path d="M4.29101 4.29098H17.8649L15.9324 12.5038C15.6815 13.5701 14.73 14.3238 13.6346 14.3238H8.7639C7.69274 14.3238 6.75587 13.6026 6.48179 12.5672L4.29101 4.29098ZM4.29101 4.29098L3.40576 0.75H0.75" stroke="#595667" stroke-width="1.5" stroke-linecap="round" stroke-linejoin="round"/>
<path d="M6.94773 18.7498C7.59961 18.7498 8.12807 18.2214 8.12807 17.5695C8.12807 16.9176 7.59961 16.3892 6.94773 16.3892C6.29585 16.3892 5.7674 16.9176 5.7674 17.5695C5.7674 18.2214 6.29585 18.7498 6.94773 18.7498Z" fill="#595667"/>
<path d="M15.2108 18.7498C15.8627 18.7498 16.3911 18.2214 16.3911 17.5695C16.3911 16.9176 15.8627 16.3892 15.2108 16.3892C14.5589 16.3892 14.0304 16.9176 14.0304 17.5695C14.0304 18.2214 14.5589 18.7498 15.2108 18.7498Z" fill="#595667"/>
</svg>
